<svg width="3624" height="3610" viewBox="0 0 3624 3610" fill="none" xmlns="http://www.w3.org/2000/svg">
<g filter="url(#filter0_d_282_174)">
<rect x="4" width="3616" height="3602" fill="white"/>
<rect x="50" y="46" width="3524" height="3510" stroke="#001AFF" stroke-width="92"/>
</g>
<g filter="url(#filter1_d_282_174)">
<path d="M1085.32 991.633C1150.91 1010.6 1221.66 1027.06 1296.62 1040.66C1127.36 1183.85 1020.14 1396.17 1020.14 1633.15C1020.14 2064.35 1375.09 2413.91 1812.95 2413.91C2250.8 2413.91 2605.76 2064.35 2605.76 1633.15C2605.76 1396.24 2498.61 1183.98 2329.42 1040.79C2404.01 1027.28 2474.44 1010.94 2539.76 992.127L3213.58 1655.81L1812.29 3036L411 1655.81L1085.32 991.633Z" fill="#0A01FF"/>
<path d="M696.859 233C770.311 535.277 1252.06 768.702 1835.41 768.702C2396.11 768.702 2862.94 553.055 2963.58 267.896L3214 514.514L1812.5 1894.71L411 514.514L696.859 233Z" fill="#0A01FF"/>
</g>
<rect x="352" y="1801" width="2921" height="532" rx="166" fill="#0A01FF"/>
<path d="M697.35 1997.65C689.35 1997.65 682.75 1996.65 677.55 1994.65C672.45 1992.55 668.4 1989.35 665.4 1985.05C662.4 1980.75 660.3 1975.3 659.1 1968.7C658 1962 657.45 1954.05 657.45 1944.85C657.45 1935.55 658 1927.6 659.1 1921C660.3 1914.3 662.4 1908.8 665.4 1904.5C668.4 1900.2 672.5 1897 677.7 1894.9C683 1892.8 689.75 1891.75 697.95 1891.75C701.25 1891.75 704.7 1891.95 708.3 1892.35C711.9 1892.75 715.35 1893.25 718.65 1893.85C722.05 1894.35 724.95 1894.9 727.35 1895.5L726.75 1912C724.75 1911.6 722.25 1911.25 719.25 1910.95C716.25 1910.55 713.2 1910.25 710.1 1910.05C707 1909.85 704.1 1909.75 701.4 1909.75C696.6 1909.75 692.7 1910.35 689.7 1911.55C686.7 1912.75 684.35 1914.75 682.65 1917.55C681.05 1920.35 679.95 1924 679.35 1928.5C678.75 1932.9 678.45 1938.35 678.45 1944.85C678.45 1951.25 678.75 1956.7 679.35 1961.2C679.95 1965.6 681.05 1969.2 682.65 1972C684.25 1974.7 686.55 1976.7 689.55 1978C692.65 1979.2 696.65 1979.8 701.55 1979.8C705.55 1979.8 709.95 1979.6 714.75 1979.2C719.65 1978.7 723.7 1978.25 726.9 1977.85L727.35 1994.2C724.95 1994.7 722.1 1995.25 718.8 1995.85C715.5 1996.35 712 1996.75 708.3 1997.05C704.6 1997.45 700.95 1997.65 697.35 1997.65ZM741.456 1996V1893.55H762.156V1936.3H801.906V1893.55H822.606V1996H801.906V1953.7H762.156V1996H741.456ZM841.505 1996V1893.55H909.605V1910.8H862.205V1935.7H900.605V1952.65H862.205V1978.75H909.605V1996H841.505ZM960.289 1997.65C952.289 1997.65 945.689 1996.65 940.489 1994.65C935.389 1992.55 931.339 1989.35 928.339 1985.05C925.339 1980.75 923.239 1975.3 922.039 1968.7C920.939 1962 920.389 1954.05 920.389 1944.85C920.389 1935.55 920.939 1927.6 922.039 1921C923.239 1914.3 925.339 1908.8 928.339 1904.5C931.339 1900.2 935.439 1897 940.639 1894.9C945.939 1892.8 952.689 1891.75 960.889 1891.75C964.189 1891.75 967.639 1891.95 971.239 1892.35C974.839 1892.75 978.289 1893.25 981.589 1893.85C984.989 1894.35 987.889 1894.9 990.289 1895.5L989.689 1912C987.689 1911.6 985.189 1911.25 982.189 1910.95C979.189 1910.55 976.139 1910.25 973.039 1910.05C969.939 1909.85 967.039 1909.75 964.339 1909.75C959.539 1909.75 955.639 1910.35 952.639 1911.55C949.639 1912.75 947.289 1914.75 945.589 1917.55C943.989 1920.35 942.889 1924 942.289 1928.5C941.689 1932.9 941.389 1938.35 941.389 1944.85C941.389 1951.25 941.689 1956.7 942.289 1961.2C942.889 1965.6 943.989 1969.2 945.589 1972C947.189 1974.7 949.489 1976.7 952.489 1978C955.589 1979.2 959.589 1979.8 964.489 1979.8C968.489 1979.8 972.889 1979.6 977.689 1979.2C982.589 1978.7 986.639 1978.25 989.839 1977.85L990.289 1994.2C987.889 1994.7 985.039 1995.25 981.739 1995.85C978.439 1996.35 974.939 1996.75 971.239 1997.05C967.539 1997.45 963.889 1997.65 960.289 1997.65ZM1004.4 1996V1893.55H1025.1V1936.75L1038 1936.45L1058.4 1893.55H1080L1055.85 1944.25L1081.65 1996H1059.45L1038.15 1955.05L1025.1 1955.35V1996H1004.4ZM1124.81 1996V1893.55H1165.61C1172.41 1893.55 1178.26 1894.4 1183.16 1896.1C1188.06 1897.8 1191.86 1900.55 1194.56 1904.35C1197.36 1908.05 1198.76 1913.05 1198.76 1919.35C1198.76 1923.65 1198.31 1927.3 1197.41 1930.3C1196.61 1933.2 1195.31 1935.7 1193.51 1937.8C1191.81 1939.8 1189.56 1941.65 1186.76 1943.35C1189.76 1944.45 1192.36 1945.95 1194.56 1947.85C1196.86 1949.65 1198.61 1952.1 1199.81 1955.2C1201.01 1958.2 1201.61 1962.2 1201.61 1967.2C1201.61 1972.7 1200.76 1977.3 1199.06 1981C1197.36 1984.7 1194.91 1987.65 1191.71 1989.85C1188.61 1992.05 1184.96 1993.65 1180.76 1994.65C1176.56 1995.55 1171.96 1996 1166.96 1996H1124.81ZM1145.51 1980.7H1165.46C1168.96 1980.7 1171.86 1980.3 1174.16 1979.5C1176.56 1978.6 1178.36 1977.05 1179.56 1974.85C1180.86 1972.65 1181.51 1969.6 1181.51 1965.7C1181.51 1962.7 1181.01 1960.25 1180.01 1958.35C1179.01 1956.45 1177.71 1955.05 1176.11 1954.15C1174.51 1953.15 1172.71 1952.45 1170.71 1952.05C1168.81 1951.65 1166.91 1951.45 1165.01 1951.45H1145.51V1980.7ZM1145.51 1936.75H1164.86C1168.26 1936.75 1171.01 1936.25 1173.11 1935.25C1175.21 1934.15 1176.76 1932.55 1177.76 1930.45C1178.76 1928.25 1179.26 1925.5 1179.26 1922.2C1179.26 1917.5 1178.01 1914.1 1175.51 1912C1173.11 1909.9 1169.31 1908.85 1164.11 1908.85H1145.51V1936.75ZM1234.16 1996V1957.15L1202.81 1893.55H1225.31L1244.51 1934.65L1264.01 1893.55H1286.36L1254.86 1957.15V1996H1234.16ZM660.45 2277V2174.55H699C707.5 2174.55 714.55 2175.75 720.15 2178.15C725.75 2180.45 729.95 2184.2 732.75 2189.4C735.65 2194.6 737.1 2201.55 737.1 2210.25C737.1 2218.95 735.65 2226.05 732.75 2231.55C729.95 2236.95 725.75 2240.95 720.15 2243.55C714.55 2246.05 707.5 2247.3 699 2247.3H681.15V2277H660.45ZM681.15 2230.35H698.4C704.7 2230.35 709.2 2228.7 711.9 2225.4C714.6 2222 715.95 2217 715.95 2210.4C715.95 2203.6 714.6 2198.75 711.9 2195.85C709.2 2192.95 704.7 2191.5 698.4 2191.5H681.15V2230.35ZM817.916 2278.65C809.516 2278.65 802.366 2277.55 796.466 2275.35C790.666 2273.15 786.266 2269.5 783.266 2264.4C780.266 2259.2 778.766 2252.3 778.766 2243.7V2174.55H799.466V2244.45C799.466 2250.35 801.016 2254.6 804.116 2257.2C807.316 2259.8 811.916 2261.1 817.916 2261.1C824.216 2261.1 828.966 2259.8 832.166 2257.2C835.366 2254.6 836.966 2250.35 836.966 2244.45V2174.55H857.666V2243.4C857.666 2252 856.116 2258.9 853.016 2264.1C850.016 2269.3 845.566 2273.05 839.666 2275.35C833.866 2277.55 826.616 2278.65 817.916 2278.65ZM905.753 2277V2174.55H945.803C954.003 2174.55 960.853 2175.6 966.353 2177.7C971.953 2179.8 976.103 2183.3 978.803 2188.2C981.603 2193.1 983.003 2199.75 983.003 2208.15C983.003 2215.55 981.653 2221.8 978.953 2226.9C976.353 2231.9 972.353 2235.6 966.953 2238L983.003 2277H961.253L947.753 2242.65H926.453V2277H905.753ZM926.453 2225.7H946.253C950.053 2225.7 953.103 2225 955.403 2223.6C957.703 2222.1 959.353 2220.05 960.353 2217.45C961.353 2214.75 961.853 2211.7 961.853 2208.3C961.853 2202.7 960.553 2198.5 957.953 2195.7C955.353 2192.9 951.303 2191.5 945.803 2191.5H926.453V2225.7ZM1065.08 2278.65C1057.08 2278.65 1050.48 2277.65 1045.28 2275.65C1040.18 2273.55 1036.13 2270.35 1033.13 2266.05C1030.13 2261.75 1028.03 2256.3 1026.83 2249.7C1025.73 2243 1025.18 2235.05 1025.18 2225.85C1025.18 2216.55 1025.73 2208.6 1026.83 2202C1028.03 2195.3 1030.13 2189.8 1033.13 2185.5C1036.13 2181.2 1040.23 2178 1045.43 2175.9C1050.73 2173.8 1057.48 2172.75 1065.68 2172.75C1068.98 2172.75 1072.43 2172.95 1076.03 2173.35C1079.63 2173.75 1083.08 2174.25 1086.38 2174.85C1089.78 2175.35 1092.68 2175.9 1095.08 2176.5L1094.48 2193C1092.48 2192.6 1089.98 2192.25 1086.98 2191.95C1083.98 2191.55 1080.93 2191.25 1077.83 2191.05C1074.73 2190.85 1071.83 2190.75 1069.13 2190.75C1064.33 2190.75 1060.43 2191.35 1057.43 2192.55C1054.43 2193.75 1052.08 2195.75 1050.38 2198.55C1048.78 2201.35 1047.68 2205 1047.08 2209.5C1046.48 2213.9 1046.18 2219.35 1046.18 2225.85C1046.18 2232.25 1046.48 2237.7 1047.08 2242.2C1047.68 2246.6 1048.78 2250.2 1050.38 2253C1051.98 2255.7 1054.28 2257.7 1057.28 2259C1060.38 2260.2 1064.38 2260.8 1069.28 2260.8C1073.28 2260.8 1077.68 2260.6 1082.48 2260.2C1087.38 2259.7 1091.43 2259.25 1094.63 2258.85L1095.08 2275.2C1092.68 2275.7 1089.83 2276.25 1086.53 2276.85C1083.23 2277.35 1079.73 2277.75 1076.03 2278.05C1072.33 2278.45 1068.68 2278.65 1065.08 2278.65ZM1139.19 2277V2174.55H1159.89V2217.3H1199.64V2174.55H1220.34V2277H1199.64V2234.7H1159.89V2277H1139.19ZM1261.59 2277L1287.69 2174.55H1323.84L1349.79 2277H1329.09L1323.39 2256.3H1287.54L1282.14 2277H1261.59ZM1290.84 2239.65H1320.39L1308.84 2191.35H1302.54L1290.84 2239.65ZM1423.21 2278.65C1419.41 2278.65 1415.26 2278.4 1410.76 2277.9C1406.26 2277.5 1401.86 2277 1397.56 2276.4C1393.36 2275.7 1389.76 2275.1 1386.76 2274.6L1388.11 2258.25C1391.21 2258.65 1394.81 2259.1 1398.91 2259.6C1403.01 2260 1407.06 2260.35 1411.06 2260.65C1415.16 2260.95 1418.71 2261.1 1421.71 2261.1C1425.51 2261.1 1428.61 2260.6 1431.01 2259.6C1433.41 2258.6 1435.16 2257.1 1436.26 2255.1C1437.46 2253 1438.06 2250.35 1438.06 2247.15C1438.06 2244.55 1437.51 2242.5 1436.41 2241C1435.41 2239.4 1433.56 2238.15 1430.86 2237.25C1428.16 2236.25 1424.41 2235.3 1419.61 2234.4C1413.61 2233.3 1408.46 2232 1404.16 2230.5C1399.96 2229 1396.51 2227.15 1393.81 2224.95C1391.11 2222.65 1389.11 2219.75 1387.81 2216.25C1386.61 2212.75 1386.01 2208.5 1386.01 2203.5C1386.01 2195.7 1387.46 2189.6 1390.36 2185.2C1393.26 2180.7 1397.41 2177.5 1402.81 2175.6C1408.21 2173.7 1414.56 2172.75 1421.86 2172.75C1425.16 2172.75 1428.91 2172.95 1433.11 2173.35C1437.41 2173.65 1441.61 2174.05 1445.71 2174.55C1449.91 2175.05 1453.46 2175.6 1456.36 2176.2L1455.46 2192.7C1452.46 2192.3 1448.96 2191.95 1444.96 2191.65C1441.06 2191.25 1437.16 2190.9 1433.26 2190.6C1429.46 2190.3 1426.21 2190.15 1423.51 2190.15C1419.81 2190.15 1416.71 2190.55 1414.21 2191.35C1411.71 2192.15 1409.86 2193.4 1408.66 2195.1C1407.46 2196.8 1406.86 2198.95 1406.86 2201.55C1406.86 2204.55 1407.46 2206.85 1408.66 2208.45C1409.86 2210.05 1411.86 2211.35 1414.66 2212.35C1417.56 2213.35 1421.51 2214.4 1426.51 2215.5C1432.41 2216.8 1437.41 2218.2 1441.51 2219.7C1445.71 2221.2 1449.06 2223 1451.56 2225.1C1454.16 2227.2 1456.06 2229.9 1457.26 2233.2C1458.46 2236.5 1459.06 2240.65 1459.06 2245.65C1459.06 2253.65 1457.61 2260.1 1454.71 2265C1451.91 2269.8 1447.81 2273.3 1442.41 2275.5C1437.11 2277.6 1430.71 2278.65 1423.21 2278.65ZM1503.41 2277V2174.55H1571.51V2191.8H1524.11V2216.7H1562.51V2233.65H1524.11V2259.75H1571.51V2277H1503.41ZM1678.69 2277V2174.55H1717.84C1725.84 2174.55 1732.54 2175.7 1737.94 2178C1743.44 2180.2 1747.84 2183.45 1751.14 2187.75C1754.44 2192.05 1756.79 2197.25 1758.19 2203.35C1759.69 2209.45 1760.44 2216.4 1760.44 2224.2C1760.44 2232.1 1759.74 2239.25 1758.34 2245.65C1757.04 2252.05 1754.79 2257.6 1751.59 2262.3C1748.39 2267 1744.09 2270.65 1738.69 2273.25C1733.29 2275.75 1726.54 2277 1718.44 2277H1678.69ZM1699.39 2259.6H1717.24C1721.94 2259.6 1725.74 2258.7 1728.64 2256.9C1731.54 2255.1 1733.74 2252.6 1735.24 2249.4C1736.84 2246.1 1737.89 2242.35 1738.39 2238.15C1738.99 2233.85 1739.29 2229.2 1739.29 2224.2C1739.29 2219.4 1738.99 2215.05 1738.39 2211.15C1737.79 2207.15 1736.69 2203.75 1735.09 2200.95C1733.59 2198.05 1731.39 2195.85 1728.49 2194.35C1725.69 2192.75 1721.94 2191.95 1717.24 2191.95H1699.39V2259.6ZM1805.96 2277V2174.55H1874.06V2191.8H1826.66V2216.7H1865.06V2233.65H1826.66V2259.75H1874.06V2277H1805.96ZM1918.58 2277V2174.55H1957.13C1965.63 2174.55 1972.68 2175.75 1978.28 2178.15C1983.88 2180.45 1988.08 2184.2 1990.88 2189.4C1993.78 2194.6 1995.23 2201.55 1995.23 2210.25C1995.23 2218.95 1993.78 2226.05 1990.88 2231.55C1988.08 2236.95 1983.88 2240.95 1978.28 2243.55C1972.68 2246.05 1965.63 2247.3 1957.13 2247.3H1939.28V2277H1918.58ZM1939.28 2230.35H1956.53C1962.83 2230.35 1967.33 2228.7 1970.03 2225.4C1972.73 2222 1974.08 2217 1974.08 2210.4C1974.08 2203.6 1972.73 2198.75 1970.03 2195.85C1967.33 2192.95 1962.83 2191.5 1956.53 2191.5H1939.28V2230.35ZM2025.01 2277L2051.11 2174.55H2087.26L2113.21 2277H2092.51L2086.81 2256.3H2050.96L2045.56 2277H2025.01ZM2054.26 2239.65H2083.81L2072.26 2191.35H2065.96L2054.26 2239.65ZM2154.5 2277V2174.55H2194.55C2202.75 2174.55 2209.6 2175.6 2215.1 2177.7C2220.7 2179.8 2224.85 2183.3 2227.55 2188.2C2230.35 2193.1 2231.75 2199.75 2231.75 2208.15C2231.75 2215.55 2230.4 2221.8 2227.7 2226.9C2225.1 2231.9 2221.1 2235.6 2215.7 2238L2231.75 2277H2210L2196.5 2242.65H2175.2V2277H2154.5ZM2175.2 2225.7H2195C2198.8 2225.7 2201.85 2225 2204.15 2223.6C2206.45 2222.1 2208.1 2220.05 2209.1 2217.45C2210.1 2214.75 2210.6 2211.7 2210.6 2208.3C2210.6 2202.7 2209.3 2198.5 2206.7 2195.7C2204.1 2192.9 2200.05 2191.5 2194.55 2191.5H2175.2V2225.7ZM2296 2277V2192.1H2268.4V2174.55H2343.4V2192.1H2316.7V2277H2296ZM2384.72 2277V2174.55H2418.02L2438.72 2242.95L2458.97 2174.55H2492.72V2277H2472.02V2201.1H2469.92L2448.47 2274.3H2428.97L2407.52 2201.1H2405.42V2277H2384.72ZM2541.57 2277V2174.55H2609.67V2191.8H2562.27V2216.7H2600.67V2233.65H2562.27V2259.75H2609.67V2277H2541.57ZM2654.19 2277V2174.55H2681.19L2714.04 2246.55H2716.74V2174.55H2737.44V2277H2710.74L2677.59 2203.8H2674.89V2277H2654.19ZM2806.09 2277V2192.1H2778.49V2174.55H2853.49V2192.1H2826.79V2277H2806.09Z" fill="white"/>
<defs>
<filter id="filter0_d_282_174" x="0" y="0" width="3624" height="3610" filterUnits="userSpaceOnUse" color-interpolation-filters="sRGB">
<feFlood flood-opacity="0" result="BackgroundImageFix"/>
<feColorMatrix in="SourceAlpha" type="matrix" values="0 0 0 0 0 0 0 0 0 0 0 0 0 0 0 0 0 0 127 0" result="hardAlpha"/>
<feOffset dy="4"/>
<feGaussianBlur stdDeviation="2"/>
<feComposite in2="hardAlpha" operator="out"/>
<feColorMatrix type="matrix" values="0 0 0 0 0 0 0 0 0 0 0 0 0 0 0 0 0 0 0.25 0"/>
<feBlend mode="normal" in2="BackgroundImageFix" result="effect1_dropShadow_282_174"/>
<feBlend mode="normal" in="SourceGraphic" in2="effect1_dropShadow_282_174" result="shape"/>
</filter>
<filter id="filter1_d_282_174" x="407" y="233" width="2811" height="2811" filterUnits="userSpaceOnUse" color-interpolation-filters="sRGB">
<feFlood flood-opacity="0" result="BackgroundImageFix"/>
<feColorMatrix in="SourceAlpha" type="matrix" values="0 0 0 0 0 0 0 0 0 0 0 0 0 0 0 0 0 0 127 0" result="hardAlpha"/>
<feOffset dy="4"/>
<feGaussianBlur stdDeviation="2"/>
<feComposite in2="hardAlpha" operator="out"/>
<feColorMatrix type="matrix" values="0 0 0 0 0 0 0 0 0 0 0 0 0 0 0 0 0 0 0.25 0"/>
<feBlend mode="normal" in2="BackgroundImageFix" result="effect1_dropShadow_282_174"/>
<feBlend mode="normal" in="SourceGraphic" in2="effect1_dropShadow_282_174" result="shape"/>
</filter>
</defs>
</svg>
