<svg width="4200" height="4439" viewBox="0 0 4200 4439" fill="none" xmlns="http://www.w3.org/2000/svg">
<circle cx="2100" cy="2339" r="2100" fill="#01FFC4"/>
<circle cx="2100" cy="2339" r="1600" fill="white"/>
<g filter="url(#filter0_d_282_173)">
<path d="M1515.05 1927.07C1569.52 1942.82 1628.29 1956.5 1690.55 1967.79C1549.96 2086.71 1460.92 2263.06 1460.92 2459.88C1460.92 2818.01 1755.72 3108.33 2119.37 3108.33C2483.03 3108.33 2777.83 2818.01 2777.83 2459.88C2777.83 2263.12 2688.84 2086.82 2548.33 1967.9C2610.28 1956.68 2668.77 1943.11 2723.01 1927.48L3282.65 2478.7L2118.82 3625L955 2478.7L1515.05 1927.07Z" fill="#01FFC4"/>
<path d="M1192.42 1297C1253.42 1548.05 1653.53 1741.92 2138.03 1741.92C2603.71 1741.92 2991.43 1562.82 3075.02 1325.98L3283 1530.81L2119 2677.11L955 1530.81L1192.42 1297Z" fill="#01FFC4"/>
</g>
<path d="M828.716 1170.68L681.791 844.008L748.523 788.971L1040.87 995.706L1010.01 1021.16L935.438 969.241L822.803 1062.14L859.575 1145.23L828.716 1170.68ZM806.773 1029.34L906.293 947.262L746.626 834.607L726.568 851.15L806.773 1029.34Z" fill="white"/>
<path d="M1129.88 935.54L965.265 631.777L1076.48 571.505C1098.76 559.435 1119.06 553.172 1137.39 552.717C1155.56 551.968 1172.13 557.015 1187.11 567.856C1201.92 578.405 1215.37 594.815 1227.44 617.088C1239.35 639.068 1246 659.73 1247.38 679.075C1248.61 698.126 1244.26 715.645 1234.35 731.633C1224.28 747.328 1208.1 761.211 1185.83 773.281L1109.78 814.495L1165.05 916.481L1129.88 935.54ZM1093.1 783.723L1169.15 742.509C1190.84 730.756 1203.11 715.959 1205.95 698.116C1208.79 680.273 1203.94 659.775 1191.39 636.623C1178.69 613.178 1164.56 598.654 1149.01 593.052C1133.46 587.449 1114.85 590.524 1093.16 602.277L1017.11 643.491L1093.1 783.723Z" fill="white"/>
<path d="M1441.69 778.023L1338.19 448.389L1458.88 410.494C1483.05 402.905 1504.17 400.64 1522.25 403.698C1540.23 406.437 1555.53 414.559 1568.16 428.064C1580.68 441.251 1590.74 459.929 1598.33 484.099C1605.82 507.951 1608.39 529.503 1606.05 548.755C1603.61 567.689 1596 584.054 1583.21 597.852C1570.33 611.332 1551.8 621.866 1527.63 629.455L1445.1 655.367L1479.85 766.04L1441.69 778.023ZM1434.62 621.975L1517.14 596.062C1540.68 588.673 1555.54 576.493 1561.75 559.523C1567.95 542.553 1567.1 521.505 1559.21 496.381C1551.23 470.939 1540.14 453.982 1525.95 445.511C1511.76 437.039 1492.9 436.498 1469.36 443.887L1386.83 469.799L1434.62 621.975Z" fill="white"/>
<path d="M1778.11 682.474L1740.98 338.975L1868.73 325.163C1892.93 322.547 1913.54 324.007 1930.56 329.542C1947.92 335.042 1961.58 345.131 1971.55 359.812C1981.49 374.16 1987.76 393.431 1990.38 417.623C1993.1 442.81 1990.26 464.575 1981.85 482.919C1973.77 501.226 1959.33 515.024 1938.54 524.313L2019.21 656.407L1974.97 661.191L1900.19 537.009L1803.75 547.436L1817.88 678.174L1778.11 682.474ZM1799.99 512.639L1888.47 503.072C1905.37 501.245 1918.45 496.645 1927.71 489.274C1937.31 481.866 1943.67 472.462 1946.79 461.06C1949.88 449.326 1950.68 436.5 1949.17 422.581C1946.63 399.052 1939.09 382.096 1926.57 371.716C1914.05 361.335 1896.02 357.416 1872.5 359.96L1784.51 369.473L1799.99 512.639Z" fill="white"/>
<path d="M2263.97 670.193C2228.15 666.598 2200.95 657.169 2182.39 641.905C2164.15 626.674 2152.35 605.724 2146.99 579.055C2141.99 552.088 2141.4 519.534 2145.23 481.392C2149.06 443.25 2156.28 411.312 2166.91 385.577C2177.53 359.843 2193.32 340.993 2214.29 329.027C2235.62 316.762 2264.03 312.411 2299.52 315.972C2335.01 319.534 2361.84 329.262 2380.01 345.156C2398.51 361.083 2410.39 382.879 2415.66 410.543C2420.95 437.875 2421.69 470.612 2417.86 508.754C2413.93 547.89 2406.67 580.16 2396.08 605.563C2385.86 630.667 2370.15 648.688 2348.95 659.626C2328.12 670.266 2299.79 673.788 2263.97 670.193ZM2267.51 634.87C2293.72 637.5 2314.12 634.522 2328.71 625.937C2343.31 617.352 2354.13 603.027 2361.17 582.963C2368.24 562.567 2373.37 536.449 2376.57 504.609C2379.66 473.764 2379.62 447.462 2376.45 425.703C2373.63 403.645 2365.98 386.462 2353.48 374.152C2341.01 361.51 2321.84 353.891 2295.97 351.295C2270.1 348.699 2249.8 352.356 2235.07 362.268C2220.38 371.849 2209.31 386.986 2201.87 407.68C2194.77 428.407 2189.65 454.359 2186.52 485.536C2183.43 516.381 2183.32 542.501 2186.2 563.895C2189.11 584.958 2196.83 601.478 2209.36 613.456C2221.93 625.103 2241.31 632.241 2267.51 634.87Z" fill="white"/>
<path d="M2584.81 722.401L2601.76 365.774L2641.37 378.13L2624.02 697.443L2650.27 705.631L2817.51 433.062L2857.13 445.418L2668.82 748.602L2584.81 722.401Z" fill="white"/>
<path d="M2852.9 816.906L3014.69 511.63L3201.57 610.674L3184.94 642.041L3033.41 561.729L2978.62 665.107L3103.65 731.37L3087.26 762.295L2962.23 696.032L2904.86 804.27L3056.4 884.582L3039.77 915.949L2852.9 816.906Z" fill="white"/>
<path d="M3139.5 977.625L3357.28 709.403L3453.16 787.248C3472.83 803.217 3486.5 819.688 3494.19 836.663C3502.09 853.379 3505.06 870.606 3503.11 888.345C3501.37 905.824 3495.54 923.846 3485.62 942.412C3475.9 960.718 3463.27 979.446 3447.73 998.596C3431.97 1018 3415.71 1034.86 3398.95 1049.16C3382.65 1063.41 3365.61 1073.83 3347.81 1080.41C3330.01 1087 3311.8 1088.53 3293.19 1085.02C3274.58 1081.5 3255.31 1071.65 3235.38 1055.47L3139.5 977.625ZM3192.93 975.278L3257.76 1027.91C3271.73 1039.26 3285.53 1045.53 3299.17 1046.72C3312.8 1047.91 3326.27 1045.33 3339.59 1038.97C3352.91 1032.61 3365.84 1023.56 3378.37 1011.84C3391.15 1000.32 3403.53 987.188 3415.51 972.437C3427.27 957.946 3437.17 943.649 3445.18 929.547C3453.45 915.655 3458.91 902.055 3461.56 888.747C3464.21 875.439 3463.23 862.625 3458.64 850.306C3454.04 837.987 3444.76 826.154 3430.78 814.808L3365.96 762.176L3192.93 975.278Z" fill="white"/>
<defs>
<filter id="filter0_d_282_173" x="951" y="1297" width="2336" height="2336" filterUnits="userSpaceOnUse" color-interpolation-filters="sRGB">
<feFlood flood-opacity="0" result="BackgroundImageFix"/>
<feColorMatrix in="SourceAlpha" type="matrix" values="0 0 0 0 0 0 0 0 0 0 0 0 0 0 0 0 0 0 127 0" result="hardAlpha"/>
<feOffset dy="4"/>
<feGaussianBlur stdDeviation="2"/>
<feComposite in2="hardAlpha" operator="out"/>
<feColorMatrix type="matrix" values="0 0 0 0 0 0 0 0 0 0 0 0 0 0 0 0 0 0 0.25 0"/>
<feBlend mode="normal" in2="BackgroundImageFix" result="effect1_dropShadow_282_173"/>
<feBlend mode="normal" in="SourceGraphic" in2="effect1_dropShadow_282_173" result="shape"/>
</filter>
</defs>
</svg>
